{
  "accessors": [
    {
      "bufferView": 2,
      "componentType": 5126,
      "count": 484,
      "max": [
        6.751194000244141,
        0.0012659999774768949,
        19.088056564331055
      ],
      "min": [
        -38.664886474609375,
        -0.022272000089287758,
        -26.2842960357666
      ],
      "type": "VEC3"
    },
    {
      "bufferView": 2,
      "byteOffset": 5808,
      "componentType": 5126,
      "count": 484,
      "max": [
        0.7630172371864319,
        1.0,
        0.7896698117256165
      ],
      "min": [
        -0.8583506941795349,
        -0.9974643588066101,
        -0.8654762506484985
      ],
      "type": "VEC3"
    },
    {
      "bufferView": 1,
      "componentType": 5126,
      "count": 484,
      "max": [
        0.22967199981212616,
        0.7051839828491211
      ],
      "min": [
        0.22967199981212616,
        0.7051839828491211
      ],
      "type": "VEC2"
    },
    {
      "bufferView": 0,
      "componentType": 5125,
      "count": 1368,
      "type": "SCALAR"
    },
    {
      "bufferView": 2,
      "byteOffset": 11616,
      "componentType": 5126,
      "count": 42364,
      "max": [
        20.201377868652344,
        0.0012659999774768949,
        49.29201889038086
      ],
      "min": [
        -52.70084762573242,
        -64.9309310913086,
        -49.29201889038086
      ],
      "type": "VEC3"
    },
    {
      "bufferView": 2,
      "byteOffset": 519984,
      "componentType": 5126,
      "count": 42364,
      "max": [
        0.9999992251396179,
        0.9998252987861633,
        0.9999234080314636
      ],
      "min": [
        -0.9999854564666748,
        -0.9998764991760254,
        -0.9999915361404419
      ],
      "type": "VEC3"
    },
    {
      "bufferView": 1,
      "byteOffset": 3872,
      "componentType": 5126,
      "count": 42364,
      "max": [
        0.9460960030555725,
        0.9845489859580994
      ],
      "min": [
        0.014980999752879143,
        0.010187000036239624
      ],
      "type": "VEC2"
    },
    {
      "bufferView": 0,
      "byteOffset": 5472,
      "componentType": 5125,
      "count": 216132,
      "type": "SCALAR"
    }
  ],
  "asset": {
    "extras": {
      "author": "merlinkun (https://sketchfab.com/merlinkun)",
      "license": "CC-BY-NC-4.0 (http://creativecommons.org/licenses/by-nc/4.0/)",
      "source": "https://sketchfab.com/3d-models/chinese-tea-pot-00fa7b2a8208458f9e0baf2ed8826ade",
      "title": "Chinese Tea Pot"
    },
    "generator": "Sketchfab-12.68.0",
    "version": "2.0"
  },
  "bufferViews": [
    {
      "buffer": 0,
      "byteLength": 870000,
      "name": "floatBufferViews",
      "target": 34963
    },
    {
      "buffer": 0,
      "byteLength": 342784,
      "byteOffset": 870000,
      "byteStride": 8,
      "name": "floatBufferViews",
      "target": 34962
    },
    {
      "buffer": 0,
      "byteLength": 1028352,
      "byteOffset": 1212784,
      "byteStride": 12,
      "name": "floatBufferViews",
      "target": 34962
    }
  ],
  "buffers": [
    {
      "byteLength": 2241136,
      "uri": "scene.bin"
    }
  ],
  "images": [
    {
      "uri": "textures/Scene_-_Root_baseColor.png"
    }
  ],
  "materials": [
    {
      "doubleSided": true,
      "name": "Scene_-_Root",
      "pbrMetallicRoughness": {
        "baseColorTexture": {
          "index": 0
        },
        "metallicFactor": 0.0,
        "roughnessFactor": 0.6
      }
    }
  ],
  "meshes": [
    {
      "name": "Object_0",
      "primitives": [
        {
          "attributes": {
            "NORMAL": 1,
            "POSITION": 0,
            "TEXCOORD_0": 2
          },
          "indices": 3,
          "material": 0,
          "mode": 4
        }
      ]
    },
    {
      "name": "Object_1",
      "primitives": [
        {
          "attributes": {
            "NORMAL": 5,
            "POSITION": 4,
            "TEXCOORD_0": 6
          },
          "indices": 7,
          "material": 0,
          "mode": 4
        }
      ]
    }
  ],
  "nodes": [
    {
      "children": [
        1
      ],
      "matrix": [
        0.9999871850013733,
        0.005058043170720339,
        -2.4954443108111227e-16,
        0.0,
        0.005058043170720339,
        -0.9999871850013733,
        -6.917215154413439e-19,
        0.0,
        -2.489328188026718e-16,
        -5.700531735021441e-19,
        -1.0,
        0.0,
        0.16400066018104553,
        -32.3822250366211,
        32.464832305908196,
        1.0
      ],
      "name": "Sketchfab_model"
    },
    {
      "children": [
        2,
        3
      ],
      "name": "Kettle.obj.cleaner.materialmerger.gles"
    },
    {
      "mesh": 0,
      "name": "Object_2"
    },
    {
      "mesh": 1,
      "name": "Object_3"
    }
  ],
  "samplers": [
    {
      "magFilter": 9729,
      "minFilter": 9987,
      "wrapS": 10497,
      "wrapT": 10497
    }
  ],
  "scene": 0,
  "scenes": [
    {
      "name": "Sketchfab_Scene",
      "nodes": [
        0
      ]
    }
  ],
  "textures": [
    {
      "sampler": 0,
      "source": 0
    }
  ]
}
