{
  "accessors": [
    {
      "bufferView": 2,
      "componentType": 5126,
      "count": 4834,
      "max": [
        62.5161018371582,
        27.28059959411621,
        197.41690063476563
      ],
      "min": [
        -59.976898193359375,
        -19.946500778198242,
        0.8291000127792358
      ],
      "type": "VEC3"
    },
    {
      "bufferView": 2,
      "byteOffset": 58008,
      "componentType": 5126,
      "count": 4834,
      "max": [
        0.9999599456787109,
        0.9995731711387634,
        0.9955818057060242
      ],
      "min": [
        -0.9999599456787109,
        -0.9999955892562866,
        -0.9999978542327881
      ],
      "type": "VEC3"
    },
    {
      "bufferView": 1,
      "componentType": 5126,
      "count": 4834,
      "max": [
        0.9968000054359436,
        0.9962999820709229
      ],
      "min": [
        0.0010999999940395355,
        0.0032999999821186066
      ],
      "type": "VEC2"
    },
    {
      "bufferView": 0,
      "componentType": 5125,
      "count": 18327,
      "type": "SCALAR"
    }
  ],
  "asset": {
    "extras": {
      "author": "tonylng (https://sketchfab.com/tonylng)",
      "license": "CC-BY-4.0 (http://creativecommons.org/licenses/by/4.0/)",
      "source": "https://sketchfab.com/3d-models/33a4694891ee47059888ace571f5c0b0",
      "title": "戏剧小生"
    },
    "generator": "Sketchfab-12.66.0",
    "version": "2.0"
  },
  "bufferViews": [
    {
      "buffer": 0,
      "byteLength": 73308,
      "name": "floatBufferViews",
      "target": 34963
    },
    {
      "buffer": 0,
      "byteLength": 38672,
      "byteOffset": 73308,
      "byteStride": 8,
      "name": "floatBufferViews",
      "target": 34962
    },
    {
      "buffer": 0,
      "byteLength": 116016,
      "byteOffset": 111980,
      "byteStride": 12,
      "name": "floatBufferViews",
      "target": 34962
    }
  ],
  "buffers": [
    {
      "byteLength": 227996,
      "uri": "scene.bin"
    }
  ],
  "images": [
    {
      "uri": "textures/m_d_fc_064_baseColor.png"
    }
  ],
  "materials": [
    {
      "doubleSided": true,
      "name": "m_d_fc_064",
      "pbrMetallicRoughness": {
        "baseColorTexture": {
          "index": 0
        },
        "metallicFactor": 0.0,
        "roughnessFactor": 0.6
      }
    }
  ],
  "meshes": [
    {
      "name": "Object_0",
      "primitives": [
        {
          "attributes": {
            "NORMAL": 1,
            "POSITION": 0,
            "TEXCOORD_0": 2
          },
          "indices": 3,
          "material": 0,
          "mode": 4
        }
      ]
    }
  ],
  "nodes": [
    {
      "children": [
        1
      ],
      "matrix": [
        1.0,
        0.0,
        0.0,
        0.0,
        0.0,
        2.220446049250313e-16,
        -1.0,
        0.0,
        0.0,
        1.0,
        2.220446049250313e-16,
        0.0,
        0.0,
        0.0,
        0.0,
        1.0
      ],
      "name": "Sketchfab_model"
    },
    {
      "children": [
        2
      ],
      "name": "4ad1d50410494d89bed8866c6777f6c5.obj.cleaner.materialmerger.gles"
    },
    {
      "mesh": 0,
      "name": "Object_2"
    }
  ],
  "samplers": [
    {
      "magFilter": 9729,
      "minFilter": 9987,
      "wrapS": 10497,
      "wrapT": 10497
    }
  ],
  "scene": 0,
  "scenes": [
    {
      "name": "Sketchfab_Scene",
      "nodes": [
        0
      ]
    }
  ],
  "textures": [
    {
      "sampler": 0,
      "source": 0
    }
  ]
}
